<?xml version="1.0" standalone="no"?>
<!DOCTYPE svg PUBLIC "-//W3C//DTD SVG 20010904//EN"
 "http://www.w3.org/TR/2001/REC-SVG-20010904/DTD/svg10.dtd">
<svg version="1.0" xmlns="http://www.w3.org/2000/svg"
 width="512.000000pt" height="512.000000pt" viewBox="0 0 512.000000 512.000000"
 preserveAspectRatio="xMidYMid meet">

<g transform="translate(0.000000,512.000000) scale(0.100000,-0.100000)"
fill="#000000" stroke="none">
<path d="M2457 4816 c-20 -7 -52 -25 -70 -39 -87 -66 -2326 -2042 -2355 -2078
-42 -53 -42 -83 0 -109 31 -19 52 -20 421 -20 l387 0 0 -1058 0 -1058 25 -51
c16 -32 41 -61 67 -79 l41 -29 474 -3 473 -3 0 706 c0 569 3 712 13 738 17 39
87 104 124 114 16 5 246 8 513 8 l485 0 47 -28 c31 -18 57 -44 75 -75 l28 -47
3 -708 3 -708 469 3 468 3 43 30 c23 17 53 50 66 74 l23 44 0 1064 0 1063 383
0 c344 0 386 2 417 18 43 21 49 50 21 95 -28 46 -2349 2086 -2408 2117 -57 30
-176 38 -236 16z"/>
</g>
</svg>
