<?xml version="1.0" standalone="no"?>
<!DOCTYPE svg PUBLIC "-//W3C//DTD SVG 20010904//EN"
 "http://www.w3.org/TR/2001/REC-SVG-20010904/DTD/svg10.dtd">
<svg version="1.0" xmlns="http://www.w3.org/2000/svg"
 width="512.000000pt" height="512.000000pt" viewBox="0 0 512.000000 512.000000"
 preserveAspectRatio="xMidYMid meet">

<g transform="translate(0.000000,512.000000) scale(0.100000,-0.100000)"
fill="#000000" stroke="none">
<path d="M2325 5109 c-495 -46 -985 -245 -1370 -556 -122 -99 -300 -277 -397
-398 -217 -271 -393 -627 -478 -965 -152 -603 -86 -1214 191 -1769 130 -262
265 -451 472 -660 430 -435 983 -695 1597 -750 647 -59 1317 145 1825 556 122
99 300 277 397 398 217 271 393 627 478 965 152 603 86 1214 -191 1769 -130
262 -265 451 -472 660 -209 211 -411 357 -678 490 -430 214 -903 304 -1374
260z m370 -1170 c189 -70 247 -342 104 -487 -76 -76 -185 -109 -303 -90 -104
16 -174 63 -221 150 -27 48 -30 61 -30 148 0 87 3 100 30 148 16 30 42 65 58
78 94 79 235 100 362 53z m-7 -851 c64 -24 139 -94 172 -163 l25 -50 0 -760 0
-760 -24 -50 c-30 -59 -94 -126 -148 -153 -140 -72 -321 -31 -415 93 -71 94
-69 57 -66 886 l3 744 24 50 c32 63 99 131 157 156 93 42 172 44 272 7z"/>
</g>
</svg>
