<?xml version="1.0" standalone="no"?>
<!DOCTYPE svg PUBLIC "-//W3C//DTD SVG 20010904//EN"
 "http://www.w3.org/TR/2001/REC-SVG-20010904/DTD/svg10.dtd">
<svg version="1.0" xmlns="http://www.w3.org/2000/svg"
 width="540.000000pt" height="540.000000pt" viewBox="0 0 540.000000 540.000000"
 preserveAspectRatio="xMidYMid meet">

<g transform="translate(0.000000,540.000000) scale(0.100000,-0.100000)"
fill="#000000" stroke="none">
<path d="M1083 4691 c-28 -20 -47 -45 -59 -77 l-18 -47 207 -931 207 -931 135
-945 c75 -520 140 -959 146 -977 12 -37 67 -89 107 -100 15 -5 421 -8 902 -8
808 0 877 1 906 17 38 21 82 71 89 101 3 12 66 447 140 967 l135 945 207 931
207 931 -18 47 c-12 32 -31 57 -59 77 l-40 29 -1577 0 -1577 0 -40 -29z m2917
-323 c0 -13 -15 -88 -33 -168 l-32 -145 -953 -3 -952 -2 0 -170 0 -170 913 -2
914 -3 -157 -705 c-140 -631 -161 -715 -198 -792 -50 -107 -89 -165 -166 -247
-110 -115 -265 -206 -421 -247 -98 -26 -332 -26 -430 0 -92 24 -222 85 -299
140 -77 55 -190 175 -234 249 -83 138 -90 166 -326 1231 -124 560 -226 1027
-226 1037 0 19 32 19 1300 19 l1300 0 0 -22z m-1850 -2883 c195 -98 330 -129
550 -129 168 0 264 15 395 61 98 35 249 114 320 168 33 25 61 41 63 35 2 -6
-15 -146 -39 -310 l-42 -300 -699 0 c-488 0 -698 3 -698 11 0 11 -76 547 -84
591 -5 25 -2 24 72 -29 42 -30 115 -74 162 -98z"/>
</g>
</svg>
